<svg xmlns="http://www.w3.org/2000/svg" width="1600" height="900" viewBox="0 0 1600 900" role="img" aria-labelledby="title desc">
<title id="title">컨텍스트 그래프는 결정의 흔적을 연결한다</title>
<desc id="desc">결과만 저장하지 않고 상황·근거·규칙·예외·승인·실행·결과를 하나의 추적 가능한 관계로 남긴다</desc>
<defs>
  <linearGradient id="bg" x1="0" y1="0" x2="1" y2="1"><stop offset="0" stop-color="#f8fafc"/><stop offset="1" stop-color="#eef2ff"/></linearGradient>
  <linearGradient id="head" x1="0" y1="0" x2="1" y2="0"><stop offset="0" stop-color="#0f172a"/><stop offset="1" stop-color="#1e1b4b"/></linearGradient>
  <pattern id="dots" width="28" height="28" patternUnits="userSpaceOnUse"><circle cx="2" cy="2" r="1.4" fill="#64748b" opacity="0.09"/></pattern>
  <filter id="shadow" x="-25%" y="-25%" width="150%" height="160%"><feDropShadow dx="0" dy="10" stdDeviation="12" flood-color="#0f172a" flood-opacity="0.13"/></filter>
  <marker id="arrow" markerWidth="13" markerHeight="13" refX="10" refY="6.5" orient="auto"><path d="M0 0L13 6.5L0 13Z" fill="#7c3aed"/></marker>
  <marker id="arrowMuted" markerWidth="13" markerHeight="13" refX="10" refY="6.5" orient="auto"><path d="M0 0L13 6.5L0 13Z" fill="#94a3b8"/></marker>
  <marker id="arrowRed" markerWidth="13" markerHeight="13" refX="10" refY="6.5" orient="auto"><path d="M0 0L13 6.5L0 13Z" fill="#ef4444"/></marker>
  <style>
    text { font-family: "Noto Sans CJK KR", "Pretendard", sans-serif; }
    .eyebrow { font-size: 17px; font-weight: 900; letter-spacing: 2.7px; fill: #a5b4fc; }
    .title { font-size: 43px; font-weight: 900; fill: #f8fafc; }
    .subtitle { font-size: 21px; font-weight: 550; fill: #cbd5e1; }
    .nodeTitle { font-size: 24px; font-weight: 850; fill: #0f172a; }
    .nodeSub { font-size: 17px; font-weight: 600; fill: #64748b; }
    .number { font-size: 17px; font-weight: 900; fill: #ffffff; }
    .badge { font-size: 13px; font-weight: 900; letter-spacing: 0.8px; fill: #ffffff; }
    .edge { font-size: 17px; font-weight: 800; fill: #475569; }
    .section { font-size: 22px; font-weight: 900; fill: #334155; }
    .foot { font-size: 18px; font-weight: 700; fill: #475569; }
  </style>
</defs>
<rect width="1600" height="900" fill="url(#bg)"/>
<rect width="1600" height="900" fill="url(#dots)"/>
<path d="M36 36H1564V218H36Z" fill="url(#head)"/>
<text x="88" y="92" class="eyebrow">ORGANIZATIONAL AI TRANSFORMATION</text>
<text x="88" y="151" class="title">컨텍스트 그래프는 결정의 흔적을 연결한다</text>
<text x="88" y="194" class="subtitle">문서 검색을 넘어 조직이 실제로 판단한 방식을 재사용한다</text>
<path d="M515 319L515 331" fill="none" stroke="#2563eb" stroke-width="5" stroke-linecap="round" marker-end="url(#arrow)"/>
<path d="M515 399L515 411" fill="none" stroke="#7c3aed" stroke-width="5" stroke-linecap="round" marker-end="url(#arrow)"/>
<path d="M515 479L515 491" fill="none" stroke="#d97706" stroke-width="5" stroke-linecap="round" marker-end="url(#arrow)"/>
<path d="M515 559L515 571" fill="none" stroke="#0ea5e9" stroke-width="5" stroke-linecap="round" marker-end="url(#arrow)"/>
<path d="M515 639L515 651" fill="none" stroke="#059669" stroke-width="5" stroke-linecap="round" marker-end="url(#arrow)"/>
<g filter="url(#shadow)"><rect x="270" y="251" width="490" height="68" rx="24" fill="#ffffff" stroke="#475569" stroke-width="2"/><rect x="270" y="251" width="490" height="8" rx="4" fill="#475569"/><circle cx="305" cy="289" r="20" fill="#475569"/><text x="305" y="295" class="number" text-anchor="middle">01</text><text class="nodeTitle" text-anchor="middle"><tspan x="515.0" y="338.0">문제·업무 상태</tspan></text></g>
<g filter="url(#shadow)"><rect x="270" y="331" width="490" height="68" rx="24" fill="#ffffff" stroke="#2563eb" stroke-width="2"/><rect x="270" y="331" width="490" height="8" rx="4" fill="#2563eb"/><circle cx="305" cy="369" r="20" fill="#2563eb"/><text x="305" y="375" class="number" text-anchor="middle">02</text><text class="nodeTitle" text-anchor="middle"><tspan x="515.0" y="418.0">사용한 근거</tspan></text></g>
<g filter="url(#shadow)"><rect x="270" y="411" width="490" height="68" rx="24" fill="#ffffff" stroke="#7c3aed" stroke-width="2"/><rect x="270" y="411" width="490" height="8" rx="4" fill="#7c3aed"/><circle cx="305" cy="449" r="20" fill="#7c3aed"/><text x="305" y="455" class="number" text-anchor="middle">03</text><text class="nodeTitle" text-anchor="middle"><tspan x="515.0" y="498.0">적용한 규칙</tspan></text></g>
<g filter="url(#shadow)"><rect x="270" y="491" width="490" height="68" rx="24" fill="#ffffff" stroke="#d97706" stroke-width="2"/><rect x="270" y="491" width="490" height="8" rx="4" fill="#d97706"/><circle cx="305" cy="529" r="20" fill="#d97706"/><text x="305" y="535" class="number" text-anchor="middle">04</text><text class="nodeTitle" text-anchor="middle"><tspan x="515.0" y="578.0">허용한 예외</tspan></text></g>
<g filter="url(#shadow)"><rect x="270" y="571" width="490" height="68" rx="24" fill="#ffffff" stroke="#0ea5e9" stroke-width="2"/><rect x="270" y="571" width="490" height="8" rx="4" fill="#0ea5e9"/><circle cx="305" cy="609" r="20" fill="#0ea5e9"/><text x="305" y="615" class="number" text-anchor="middle">05</text><text class="nodeTitle" text-anchor="middle"><tspan x="515.0" y="658.0">결정</tspan></text></g>
<g filter="url(#shadow)"><rect x="270" y="651" width="490" height="68" rx="24" fill="#ffffff" stroke="#059669" stroke-width="2"/><rect x="270" y="651" width="490" height="8" rx="4" fill="#059669"/><circle cx="305" cy="689" r="20" fill="#059669"/><text x="305" y="695" class="number" text-anchor="middle">06</text><text class="nodeTitle" text-anchor="middle"><tspan x="515.0" y="738.0">실행</tspan></text></g>
<path d="M760 605C875 605 880 500 1010 500" fill="none" stroke="#d97706" stroke-width="5" stroke-linecap="round" marker-end="url(#arrow)"/>
<path d="M760 685L1010 700" fill="none" stroke="#059669" stroke-width="5" stroke-linecap="round" marker-end="url(#arrow)"/>
<g filter="url(#shadow)"><rect x="1010" y="425" width="350" height="150" rx="24" fill="#fffbeb" stroke="#d97706" stroke-width="2"/><rect x="1010" y="425" width="350" height="8" rx="4" fill="#d97706"/><rect x="1026" y="444" width="64" height="36" rx="18" fill="#d97706"/><text x="1058.0" y="468" class="badge" text-anchor="middle">WHO</text><text class="nodeTitle" text-anchor="middle"><tspan x="1185.0" y="512.0">승인자·역할</tspan></text><text class="nodeSub" text-anchor="middle"><tspan x="1185.0" y="543.0">누가 어떤 권한으로 결정했는가</tspan></text></g>
<g filter="url(#shadow)"><rect x="1010" y="625" width="350" height="150" rx="24" fill="#f0fdf4" stroke="#059669" stroke-width="2"/><rect x="1010" y="625" width="350" height="8" rx="4" fill="#059669"/><rect x="1026" y="644" width="88" height="36" rx="18" fill="#059669"/><text x="1070.0" y="668" class="badge" text-anchor="middle">OUTCOME</text><text class="nodeTitle" text-anchor="middle"><tspan x="1185.0" y="712.0">결과·후속 피드백</tspan></text><text class="nodeSub" text-anchor="middle"><tspan x="1185.0" y="743.0">결정 이후 실제로 무엇이 달라졌는가</tspan></text></g>
<path d="M1185 625L1185 575" fill="none" stroke="#059669" stroke-width="5" stroke-linecap="round" stroke-dasharray="9 10" marker-end="url(#arrowMuted)"/>
<text x="800" y="854" class="foot" text-anchor="middle">무엇을 했는가와 함께 왜·누가·어떤 예외로 결정했는가를 남긴다</text>
</svg>