<svg xmlns="http://www.w3.org/2000/svg" width="480" height="776" viewBox="0 0 480 776" role="img" aria-labelledby="title desc" data-renderer="roughjs-4.6.6"><title id="title">검토하지 않은 초안의 비용</title><desc id="desc">작성자 → AI 빠르게 결과물 생성; AI → 작성자 맥락과 근거가 부족한 초안; 작성자 → 동료 충분히 검토하지 않고 전달; 동료 → 동료 맥락 복원·사실 확인·재작성 / 작성자 → AI 빠르게 결과물 생성 → AI → 작성자 맥락과 근거가 부족한 초안; AI → 작성자 맥락과 근거가 부족한 초안 → 작성자 → 동료 충분히 검토하지 않고 전달; 작성자 → 동료 충분히 검토하지 않고 전달 → 동료 → 동료 맥락 복원·사실 확인·재작성</desc><defs><marker id="arrow" viewBox="0 0 10 10" refX="9" refY="5" markerWidth="7" markerHeight="7" orient="auto-start-reverse"><path d="M 1 1 L 9 5 L 1 9" fill="none" stroke="#748580" stroke-width="1.6"/></marker></defs><rect width="480" height="776" rx="18" fill="#faf7f0"/><text x="240" y="48" text-anchor="middle" font-family="Noto Sans CJK KR, sans-serif" font-size="24" fill="#303b3a">검토하지 않은 초안의 비용</text><path d="M 240 216 V 270" fill="none" stroke="#748580" stroke-width="2" marker-end="url(#arrow)" style="stroke: none;"/><g><path d="M239.80844134017826 214.8719317443669 C238.6189495158039 225.64626434892418, 241.3930595707737 238.3370039664209, 239.0483740441501 270.86348517015574 M240.0934105757624 215.62190262638032 C240.70704427007513 234.35917783565822, 239.79282917026356 251.7823108177632, 240.6737999442965 270.1971111353487" stroke="rgb(116, 133, 128)" stroke-width="2" fill="none"/></g><path d="M 240 414 V 468" fill="none" stroke="#748580" stroke-width="2" marker-end="url(#arrow)" style="stroke: none;"/><g><path d="M239.00852575358005 414.94665106181054 C239.84012101096192 425.8607269924134, 239.6459721664814 436.5263740060851, 239.89285778459163 467.7381200218573 M240.33934468152 414.5071216526441 C240.51885671277586 433.3817696140148, 240.7574994619662 452.9591339259408, 239.56753794373944 468.02408224670216" stroke="rgb(116, 133, 128)" stroke-width="2" fill="none"/></g><path d="M 240 580 V 634" fill="none" stroke="#748580" stroke-width="2" marker-end="url(#arrow)" style="stroke: none;"/><g><path d="M241.0086101669818 580.2213703792543 C241.06129250612 591.2751896359026, 240.69888476218918 602.7157440457493, 240.73734152503312 632.6127548735589 M240.58527878727764 579.9923406789079 C239.8014691554766 600.4043613923714, 239.7929697536688 620.7359570341184, 239.86127594318242 633.8510533580557" stroke="rgb(116, 133, 128)" stroke-width="2" fill="none"/></g><rect x="68" y="104" width="344" height="112" rx="14" fill="#e7eee8" stroke="#71827d" stroke-width="1.6" style="stroke: none;"/><g><path d="M82.14746884960248 103.6439242811471 C144.88401234319068 102.9485037042078, 207.85535229236137 103.93103590725407, 397.13920703458103 104.2030768220901 M81.59808069678363 103.63083052217891 C207.79713064596936 103.39587556470931, 334.7671390700256 103.06136237934632, 398.1095367582104 103.77248397630113 M398 104 C406.6258111435299 102.7963759990409, 411.86584970336406 109.49769775389383, 410.63832569699736 118.61971975881606 M397.10161154251546 104.29076876360924 C406.09076886771555 103.110680165058, 412.6822475148085 107.27645399020675, 411.1938364083413 117.37726704305969 M411.17104875165967 118.49429136496038 C413.0046142435636 148.6223956750706, 412.2596810138788 178.30122000928966, 413.2548953028396 201.85116336923093 M412.041318938043 117.50645827213302 C411.638877857561 145.44623725982385, 411.0446023859929 172.21692607188598, 411.7068354188465 201.85250313738362 M412 202 C413.3286578414962 210.17600019493452, 407.3054096835976 214.89750360567123, 399.1578892884776 214.8738441022113 M412.99654935579747 202.43395369965583 C411.27699552753006 212.76444273826047, 406.5354185703241 217.4964747840818, 398.66589149960316 217.20857734448276 M398.4725938143178 215.8880541342951 C325.3696796197411 214.5755914388149, 254.09959408048314 215.64580000515863, 82.80821105311992 216.09580307169287 M397.701376700151 215.8847978681111 C282.6335649896174 215.28445131905372, 167.60242362650808 214.81682727739113, 81.53772325467335 215.53244201755328 M82 216 C73.12926988980423 216.3201840730384, 67.60538963656873 211.4964801422631, 67.53261569123715 203.29203170854598 M80.85961384754629 216.4200349064544 C73.59638964492518 217.51788351631723, 66.65521614917554 212.472070185806, 68.81071487852373 203.3579012185987 M67.88980235178023 202.64932278376074 C68.28461402743496 180.05060867760332, 68.45560563295521 157.79541244711726, 68.95345465857535 118.6098240910098 M67.88497348716483 201.95519893327727 C68.25207994249797 174.97166884290056, 67.44717481699921 146.4841730886139, 68.67133538117632 118.23018476227298 M68 118 C68.61506590824574 107.31312359689424, 73.78914568206916 104.3845524938777, 80.897319358401 104.50274937469513 M66.73343197088688 117.49466668087989 C66.61479513266124 109.96251535730127, 72.85881228912312 105.46134159511887, 82.75365566619672 104.15266298181378 M82 104 C82 104, 82 104, 82 104 M82 104 C82 104, 82 104, 82 104" stroke="rgb(113, 130, 125)" stroke-width="1.6" fill="none"/></g><text x="240" y="147" text-anchor="middle" font-family="Noto Sans CJK KR, sans-serif" font-size="26" fill="#303b3a">작성자 → AI</text><text x="240" y="179" text-anchor="middle" font-family="Noto Sans CJK KR, sans-serif" font-size="26" fill="#303b3a">빠르게 결과물 생성</text><rect x="68" y="270" width="344" height="144" rx="14" fill="#e8edef" stroke="#71827d" stroke-width="1.6" style="stroke: none;"/><g><path d="M81.58222833823939 269.1314226737796 C145.71654595195952 269.4069809742821, 208.57041052820955 268.9583601695909, 397.7359405265673 269.4078654491007 M81.77186393345143 270.25634859365636 C152.05633587903705 269.9255059484552, 221.40962997555985 270.29848652556444, 398.31709943081444 269.6502174032555 M398 270 C408.34515558828906 271.2720689699054, 412.04124630242586 274.8669310654203, 410.88335798531773 285.37330927103756 M399.362792237103 270.14407719820736 C407.0009381447484 270.21185181714594, 411.5790654518455 273.9350927020858, 411.48299986861645 282.8866579852253 M411.3668841764331 284.8660806015134 C411.7059488029629 317.3596578165889, 411.41591913415493 351.6559037938714, 412.2204768106341 399.8361261203885 M412.6737589277327 283.6172005854547 C412.4332526026994 316.1969518892467, 411.95553756344617 347.66422379240396, 412.2408823646605 400.6326245270669 M412 400 C411.8056351020932 409.9453464751442, 407.0197016869982 414.2867997571826, 399.2370920971036 414.0726192876697 M412.91107896119354 399.0925357744098 C412.78618965886534 408.57435642180343, 407.9188368735959 414.9013920149952, 396.84352151416243 414.767010134235 M397.77604525484514 414.2807564703562 C317.5596455834279 415.3660983236951, 237.54187534883735 414.06475290097416, 82.80645314800458 414.31763932908797 M398.4140212152981 413.8788770936267 C271.79687523650693 413.74492240735987, 145.49528944462952 412.87896913733164, 82.09510507151485 413.59033261306354 M82 414 C73.47356700847547 413.08639945238826, 67.58796623498202 408.45146215011675, 66.7805051639676 400.9647698804736 M81.59611495286227 414.46488961428406 C73.8711442369471 415.0167950067669, 67.25177164576948 410.3424462717523, 66.48955677054822 399.8548711333424 M67.24989752024412 398.60319970399144 C66.83876973567902 373.030341540277, 67.77258650241792 349.2451130762696, 69.1937794610858 284.9283660724759 M68.33919653072954 400.3557348452508 C68.65285892799795 371.6856628112495, 68.49256637409627 344.17469340786334, 68.39921242371202 283.3829050026834 M68 284 C68.87928984910249 273.6669726933042, 71.63887848804394 270.83682970255614, 82.01476906090974 268.91733917444947 M67.00657208710909 283.0412168428302 C66.52319120191038 275.20917408245305, 71.78213409128288 269.9280536494404, 81.74495329402387 268.7004558262974 M82 270 C82 270, 82 270, 82 270 M82 270 C82 270, 82 270, 82 270" stroke="rgb(113, 130, 125)" stroke-width="1.6" fill="none"/></g><text x="240" y="313" text-anchor="middle" font-family="Noto Sans CJK KR, sans-serif" font-size="26" fill="#303b3a">AI → 작성자</text><text x="240" y="345" text-anchor="middle" font-family="Noto Sans CJK KR, sans-serif" font-size="26" fill="#303b3a">맥락과 근거가</text><text x="240" y="377" text-anchor="middle" font-family="Noto Sans CJK KR, sans-serif" font-size="26" fill="#303b3a">부족한 초안</text><rect x="68" y="468" width="344" height="112" rx="14" fill="#f4ead6" stroke="#71827d" stroke-width="1.6" style="stroke: none;"/><g><path d="M81.01698782687632 468.5974716264121 C144.57052900072833 467.8654582443563, 209.2854687640577 467.96423499192775, 398.3326740185535 468.5912046361113 M81.94564717011923 467.89259138513387 C158.52626583210468 468.4551363322011, 234.45212088109406 468.5463353917825, 397.53538682341843 467.5279508302099 M398 468 C407.26450003304825 468.94776194076985, 412.21664290148766 472.2361643769468, 411.12839027363805 481.3268987832591 M398.8239729316905 467.9973856328055 C407.91110742178125 469.3130234692339, 410.4758833888825 472.5937314139648, 411.7721633288916 480.39604892739095 M411.5627196012065 483.2378698380664 C413.2463271414969 501.96263636779037, 413.4112010335658 519.1420203978196, 411.1860583184287 565.8210888715461 M411.90619891742244 481.7279428987764 C411.8586385926593 501.37529041050004, 412.8974839857209 519.9667692965828, 411.37492931047456 566.0127459167503 M412 566 C413.08261236269027 574.9146927553539, 406.7339936903988 578.876095908694, 399.3162949057296 581.271394473128 M412.82560856658966 566.5511178491637 C411.0753837902006 575.6042701053465, 406.08225517686765 580.3063092459087, 398.2411515287217 580.3254429239873 M397.0794966953725 580.6734588064173 C311.72816210711466 579.9897777292151, 222.96270717719153 580.2739794374296, 82.80469524288924 580.539475586483 M398.1373904504452 579.8729563191424 C324.1601854833964 579.216118215666, 250.77743054275095 578.9411109972721, 81.66321160835633 579.6482232085738 M82 580 C73.8178641271467 580.6526148317382, 67.57054283339531 576.2064441579705, 68.82839463669806 566.6375080524012 M82.33261605817825 580.5097443221136 C74.14589882896902 580.5157064972166, 67.84832714236342 576.2128223576987, 67.38839866257273 567.5718410480861 M66.609992688708 565.3570766242221 C68.31107255223952 534.1642127295955, 67.20771448019705 500.60309035871177, 66.63410426359624 483.24690805394204 M67.39341957429424 565.3562707572244 C67.66679994138144 536.3536429951898, 68.15111995907687 506.97318615829573, 68.12708946624771 481.9356252430938 M68 482 C69.14351378995926 472.0208217897142, 72.28861129401874 469.28910691123457, 83.13221876341849 468.1319289742038 M67.27971220333129 483.38776700478047 C66.43158727115951 472.45583280760485, 73.92545589344266 466.39476570376195, 80.73625092185102 468.468248670781 M82 468 C82 468, 82 468, 82 468 M82 468 C82 468, 82 468, 82 468" stroke="rgb(113, 130, 125)" stroke-width="1.6" fill="none"/></g><text x="240" y="511" text-anchor="middle" font-family="Noto Sans CJK KR, sans-serif" font-size="26" fill="#303b3a">작성자 → 동료</text><text x="240" y="543" text-anchor="middle" font-family="Noto Sans CJK KR, sans-serif" font-size="26" fill="#303b3a">충분히 검토하지 않고 전달</text><rect x="68" y="634" width="344" height="112" rx="14" fill="#e7eee8" stroke="#71827d" stroke-width="1.6" style="stroke: none;"/><g><path d="M82.43029787551323 634.0849700190446 C145.40306260949717 634.1142091550706, 208.02197643990584 632.7818328949046, 398.9294075105397 633.7959932631219 M82.11943040678703 633.5288341766113 C164.99619578517235 632.796489796587, 248.48388706662828 633.5951826186407, 397.7429494960224 634.3949595371643 M398 634 C406.18384447780744 634.6234549116343, 412.39203950054946 637.6053976884732, 411.3734225619584 648.0804882954806 M398.28515362627803 633.8506940674037 C408.8212766988141 633.1941951213219, 412.5927013259195 639.2523701258438, 412.0613267891668 649.1254398695565 M411.7585550259799 646.8096590746194 C411.96718359046355 678.0327567141503, 412.58696104340925 707.1624205920846, 412.95163982622324 731.8060516227036 M412.53863890711216 647.8386852120981 C411.84531896020843 680.139816985838, 411.600724785585 711.4416909089313, 411.9089762562886 731.3928673064336 M412 732 C411.5595896232873 742.6840390355637, 406.44828569379945 746.2653920602054, 399.3954977143556 745.6701696585864 M412.74013817198573 731.2096999239177 C412.5845779215358 742.6341837888895, 407.4656734801394 745.711226476822, 396.41878154328094 745.8838757137396 M398.36149869589985 745.0876105824784 C303.91812807080146 746.8017340540953, 208.38353900554574 746.6929323332452, 82.8029373377739 746.761311843878 M397.86075968559226 745.867035544658 C313.3234957302859 745.6765893039722, 228.6702963608724 745.9925281372126, 82.22059342519782 745.706113804084 M82 746 C71.36216124581794 745.4188302110881, 67.5531194318086 741.1614261658242, 68.07628410942853 732.3102462243289 M83.06911716349423 746.5545990299433 C71.20065342099096 746.0146179876663, 68.44488263895735 742.0831984436451, 68.28724055459723 732.0688109628297 M68.77008785717189 732.1109535444527 C67.74750181464181 702.2210147555918, 67.40696890381798 674.2069293145091, 66.87442906610667 646.7654500354081 M67.84764261785895 731.756806669198 C68.07415994082317 710.1446300713345, 67.80309253011569 688.0176926931367, 67.8549665087834 648.4883454835042 M68 648 C66.60773773081601 638.3746708861241, 72.93834409999351 632.941384119913, 81.44966846592725 635.3465187739581 M67.5528523195535 648.9343171667308 C69.55998334040865 637.7024915327567, 72.84877769560244 634.0814777580835, 82.94754854967817 633.0160415152646 M82 634 C82 634, 82 634, 82 634 M82 634 C82 634, 82 634, 82 634" stroke="rgb(113, 130, 125)" stroke-width="1.6" fill="none"/></g><text x="240" y="677" text-anchor="middle" font-family="Noto Sans CJK KR, sans-serif" font-size="26" fill="#303b3a">동료 → 동료</text><text x="240" y="709" text-anchor="middle" font-family="Noto Sans CJK KR, sans-serif" font-size="24" fill="#303b3a">맥락 복원·사실 확인·재작성</text></svg>